<svg xmlns="http://www.w3.org/2000/svg" viewBox="0 0 2000 2000">
  <rect width="2000" height="2000" fill="#5860FF"/>
  <g transform="translate(0,2000) scale(0.1,-0.1)" fill="#FFFFFF">
    <path d="M6590 15678 c-125 -18 -141 -23 -226 -69 -90 -49 -224 -155 -292 -233 -17 -20 -44 -60 -58 -89 -15 -29 -44 -71 -65 -94 -25 -27 -40 -54 -43 -80 -4 -21 -17 -101 -31 -178 -30 -169 -31 -195 -5 -320 11 -53 20 -111 20 -128 0 -49 110 -261 185 -357 78 -100 124 -139 225 -190 41 -21 86 -50 100 -65 38 -41 52 -45 193 -61 111 -11 660 -14 3388 -14 3233 0 3257 0 3410 -21 101 -13 162 -26 177 -37 65 -46 145 -96 215 -132 74 -39 80 -44 104 -98 13 -31 40 -73 58 -92 42 -43 132 -216 151 -290 26 -99 34 -387 34 -1230 0 -785 -7 -1039 -30 -1170 -5 -30 -27 -89 -48 -130 -22 -41 -47 -98 -56 -126 -13 -39 -35 -70 -99 -135 -158 -161 -315 -269 -395 -269 -20 -1 -77 -10 -127 -22 l-90 -21 -3415 -7 c-3743 -8 -3514 -4 -3700 -65 -41 -13 -123 -36 -182 -49 -59 -14 -140 -41 -180 -60 -40 -19 -92 -37 -116 -41 -31 -5 -57 -19 -91 -49 -32 -28 -65 -47 -97 -55 -67 -17 -195 -94 -334 -202 -74 -57 -370 -330 -370 -340 0 -4 -43 -52 -96 -106 -53 -54 -113 -123 -134 -153 -21 -30 -59 -75 -84 -99 -31 -30 -51 -62 -62 -95 -9 -28 -30 -71 -47 -96 -43 -65 -144 -282 -174 -375 -14 -44 -42 -118 -60 -165 -22 -54 -40 -121 -49 -185 -8 -55 -28 -139 -44 -186 -48 -140 -52 -245 -48 -1479 l3 -1105 29 -75 c15 -41 35 -104 42 -139 18 -77 12 -69 154 -220 84 -90 134 -133 185 -163 39 -23 83 -52 100 -66 40 -33 102 -59 174 -72 33 -6 80 -22 103 -35 53 -30 73 -31 185 -4 48 11 132 29 185 39 116 23 167 44 227 94 25 21 70 51 101 66 55 28 85 56 136 130 112 163 117 173 197 390 27 72 27 111 27 1200 0 539 4 909 10 930 5 19 14 80 19 136 6 55 19 128 30 162 23 74 171 310 228 363 74 69 135 112 186 131 29 11 70 37 93 59 l40 40 145 17 c133 16 357 17 2889 17 2532 0 2747 -1 2775 -16 65 -36 122 -97 135 -144 7 -25 30 -69 50 -98 21 -29 45 -70 54 -92 9 -22 30 -57 47 -77 16 -21 39 -59 50 -85 11 -26 37 -70 58 -98 48 -64 103 -165 125 -233 13 -37 29 -61 57 -84 27 -22 45 -48 60 -87 11 -31 37 -83 58 -116 74 -117 129 -211 156 -265 15 -30 47 -83 71 -116 24 -34 56 -87 70 -118 14 -32 44 -74 65 -95 23 -21 48 -60 59 -89 11 -28 39 -80 62 -116 98 -148 138 -215 167 -279 17 -38 46 -86 64 -107 18 -22 41 -64 51 -95 9 -31 30 -71 47 -89 16 -19 40 -58 53 -87 13 -30 49 -92 81 -139 31 -47 74 -120 96 -163 51 -101 114 -203 153 -249 18 -20 40 -63 50 -94 10 -31 28 -66 41 -78 12 -12 37 -46 55 -76 81 -138 237 -269 425 -359 l110 -53 169 -9 c217 -11 287 1 429 73 108 54 165 92 294 200 71 59 88 80 128 156 26 48 57 119 70 157 13 39 34 97 46 130 29 81 36 251 16 403 -13 93 -20 120 -46 160 -17 26 -37 66 -45 88 -8 23 -35 71 -60 108 -25 37 -46 73 -46 80 0 8 -22 48 -49 89 -63 96 -206 345 -215 375 -4 12 -23 42 -41 67 -19 24 -50 75 -69 112 -18 38 -44 77 -56 88 -12 11 -34 43 -47 70 -14 28 -40 73 -58 100 -19 28 -45 79 -59 116 -15 36 -44 87 -66 113 -24 29 -47 71 -56 105 -11 36 -30 71 -55 98 -21 23 -55 74 -75 115 -20 40 -56 103 -80 140 -24 38 -53 87 -65 110 -12 24 -36 61 -54 83 -56 69 -195 315 -238 423 -17 40 -42 78 -70 106 -37 36 -46 52 -51 92 -11 79 9 123 70 153 28 14 64 36 80 47 16 12 63 38 104 59 118 58 230 145 438 338 105 99 192 182 192 186 0 3 34 44 76 91 41 46 99 125 129 175 29 49 65 101 79 114 14 13 35 49 46 79 11 29 32 69 45 86 14 18 34 58 44 89 11 31 35 85 54 119 19 35 43 88 52 118 10 30 30 80 45 110 37 74 48 119 60 239 6 68 17 115 31 143 14 27 28 90 41 182 18 133 19 208 18 1348 0 812 -4 1226 -11 1265 -6 32 -22 92 -35 133 -13 41 -30 134 -39 206 -17 153 -21 164 -113 349 -38 77 -81 176 -95 220 -33 101 -105 229 -157 277 -22 21 -54 66 -70 100 -17 35 -66 108 -110 163 -45 55 -105 133 -136 172 -30 40 -69 80 -86 89 -18 9 -67 49 -109 88 -143 132 -185 164 -294 229 -139 83 -287 176 -323 203 -43 34 -69 45 -128 54 -31 5 -94 27 -142 49 -60 27 -118 44 -187 56 -55 9 -132 29 -172 45 -161 65 106 60 -3647 59 -3334 -1 -3414 -2 -3546 -21z"/>
    <path d="M9210 13089 c-89 -11 -135 -24 -175 -53 -16 -11 -65 -39 -110 -61 -75 -37 -82 -44 -106 -95 -16 -34 -44 -70 -71 -92 -36 -29 -46 -46 -56 -88 -7 -28 -27 -84 -45 -123 l-32 -72 -3 -632 -3 -631 39 -45 c23 -26 44 -64 50 -89 12 -46 63 -130 111 -181 14 -16 53 -43 86 -61 33 -18 85 -47 116 -64 77 -43 203 -72 318 -72 149 0 264 38 347 117 22 21 61 55 86 75 60 48 226 270 233 311 3 18 5 313 3 657 -3 613 -3 626 -25 680 -11 30 -35 93 -51 139 -33 93 -81 151 -202 242 -91 68 -328 153 -414 148 -11 -1 -55 -5 -96 -10z"/>
    <path d="M11980 13089 c-146 -19 -448 -212 -484 -311 -19 -53 -51 -137 -77 -201 -11 -26 -24 -89 -29 -140 -11 -103 -11 -618 -1 -982 l7 -240 64 -100 c119 -187 181 -252 288 -304 125 -62 186 -76 327 -76 125 0 134 1 245 39 100 35 122 47 169 90 77 73 147 165 177 233 15 32 43 82 63 112 l36 53 3 603 4 603 -35 103 c-19 57 -38 122 -42 144 -5 30 -18 51 -55 85 -26 25 -62 69 -80 98 -20 32 -48 61 -73 76 -67 39 -267 106 -332 112 -33 3 -73 6 -90 8 -16 1 -55 -1 -85 -5z"/>
  </g>
</svg>
